<svg viewBox="0 0 1800 1156" xmlns="http://www.w3.org/2000/svg" dominant-baseline="central" text-anchor="middle" font-family="Inter,BlinkMacSystemFont,-apple-system,Segoe UI,Roboto,Ubuntu,Cantarell,Fira Sans,Droid Sans,Helvetica Neue,Helvetica,Arial,sans-serif"><text text-anchor="start" x="30" font-size="50" font-weight="500" dominant-baseline="hanging" fill="#2c2960" y="30">CNCF Technology Radar</text><text text-anchor="end" x="1770" font-size="50" font-weight="500" dominant-baseline="hanging" fill="#2c2960" y="30">Continuous Delivery, June 2020</text><g transform="translate(900 1123)"><path d="M 0 0 L -866.0254037844387 -499.99999999999994 A 1000 1000, 0, 0, 1, 866.0254037844387 -499.99999999999994 Z" fill="#FFECD1" stroke-width="5" stroke="#202020"></path><text x="0" y="-810" fill="#202020" font-size="50" font-weight="500">ASSESS</text><text x="-740.0000000000002" y="-534.9999999999999" fill="#202020" font-size="35" class="jsx-3463687480">Argo CD</text><text x="-607.7910648201068" y="-627.5" fill="#202020" font-size="35" class="jsx-1219987176">Jenkins X</text><text x="-462.5" y="-720" fill="#202020" font-size="35" class="jsx-1219987176">Spinnaker</text><text x="-294.0990761387561" y="-812.5" fill="#202020" font-size="35" class="jsx-1219987176">Team City</text><text x="0" y="-905" fill="#202020" font-size="35" class="jsx-1219987176">GitHub Actions</text><text x="294.0990761387561" y="-812.5" fill="#202020" font-size="35" class="jsx-1219987176">Tekton CD</text><text x="462.5" y="-720" fill="#202020" font-size="35" class="jsx-1219987176">Travis CI</text><text x="607.7910648201068" y="-627.5" fill="#202020" font-size="35" class="jsx-1219987176">Jenkins</text><text x="740.0000000000002" y="-534.9999999999999" fill="#202020" font-size="35" class="jsx-3463687480">jsonnet</text><path d="M 0 0 L -649.519052838329 -374.99999999999994 A 750 750, 0, 0, 1, 649.519052838329 -374.99999999999994 Z" fill="#B3D1BD" stroke-width="5" stroke="#202020"></path><text x="0" y="-560" fill="#202020" font-size="50" font-weight="500">TRIAL</text><text x="-391.9852668710748" y="-486.25" fill="#202020" font-size="35" class="jsx-1219987176">Circle CI</text><text x="0" y="-655" fill="#202020" font-size="35" class="jsx-3463687480">Kustomize</text><text x="391.9852668710748" y="-486.25" fill="#202020" font-size="35" class="jsx-1219987176">GitLab</text><path d="M 0 0 L -433.01270189221935 -249.99999999999997 A 500 500, 0, 0, 1, 433.01270189221935 -249.99999999999997 Z" fill="#83AF83" stroke-width="5" stroke="#202020"></path><text x="0" y="-120" fill="#202020" font-size="50" font-weight="500">ADOPT</text><text x="-177.22082634517994" y="-313.33333333333337" fill="#202020" font-size="35" class="jsx-3463687480">Flux</text><text x="177.22082634517994" y="-313.33333333333337" fill="#202020" font-size="35" class="jsx-1219987176">Helm</text></g></svg>