<svg id="Lager_2" data-name="Lager 2" xmlns="http://www.w3.org/2000/svg" viewBox="0 0 800 600"><defs><style>.cls-1{fill:#328cc1;}.cls-2{fill:#999;}.cls-3{fill:#e0e0e0;}.cls-4{fill:#fff;}.cls-5{fill:#1d2731;}</style></defs><title>ML Ops ListImgBlog</title><path class="cls-1" d="M552,437.32l-24-26.13,24-25.6a85.75,85.75,0,1,0,0-171.49V162.38c75.8,0,137.47,61.67,137.47,137.47S627.83,437.32,552,437.32Z"/><path class="cls-1" d="M248,437.32c-75.8,0-137.47-61.67-137.47-137.47S172.17,162.38,248,162.38V214.1a85.75,85.75,0,1,0,0,171.49l19.13,25.73Z"/><path class="cls-2" d="M552,437.17c-6,0-53.8-.81-83.24-26.19-26.56-18.89-63.05-62.83-83.52-88.79h-.63l-7.77-9.93c-31.23-39.92-60.3-71.37-75.88-82.08l-1.43-1L298.21,228c-11.68-10.58-38.51-14-49.78-14h-.09l-14.71-25.67,14.62-26.05h.11c5.95,0,53.8.81,83.24,26.19,24.33,17.31,56.79,55.34,78.1,82h.87l7.77,10.08C451.14,323.17,483,358,499.4,369.31l1.43,1,1.28,1.17c11.69,10.58,38.52,14,49.79,14H552l-15.84,25.34,15.93,26.38Z"/><path class="cls-3" d="M248.36,437.17h-.11l15.93-25.57-15.84-26.15c13.33-.06,38.74-3.9,49.87-14l1.29-1.17,1.43-1c15.58-10.71,44.65-42.16,75.88-82.08l7.77-9.93h.63c20.47-26,57-69.9,83.52-88.79C498.17,163.13,546,162.32,552,162.32h.11l14.21,25.88L552.06,214c-13.4.06-38.81,3.9-49.95,14l-1.28,1.17-1.43,1c-16.44,11.3-48.26,46.14-81.06,88.76L410.57,329h-.87c-21.31,26.62-53.76,64.65-78.1,82C302.16,436.36,254.32,437.17,248.36,437.17Z"/><path d="M358.39,334l12.41,4.73L364.58,327l2.41-2.73L379.14,335l-1.86,2.11-4-3.54-5.18-4.95,6.19,11.86L373,342l-12.52-4.68,5.54,4.52,4,3.53-1.86,2.11L356,336.69Z"/><path d="M384.66,323l-4.16,4.71,2,3.48-1.94,2.19-8.09-15.32,1.67-1.89,16.21,6.14-1.95,2.2Zm-5.34,2.61,3.11-3.52-6.59-2.69Z"/><path d="M393.49,318.72l-1.85,2.1-12.15-10.73,1.86-2.1Z"/><path d="M404.3,306.49l-1.86,2.11L389,306.4l8.61,7.62-1.86,2.11-12.15-10.74,1.87-2.11L399,305.5l-8.65-7.65,1.85-2.09Z"/><path d="M403.61,286.23,400.26,290l10.45,9.23-1.86,2.1-10.44-9.23-3.32,3.75-1.7-1.51,8.52-9.63Z"/><path d="M417.76,285.58l-4.16,4.7,2,3.48-1.94,2.2-8.09-15.33,1.67-1.89,16.21,6.14-2,2.2Zm-5.34,2.6,3.11-3.52L408.94,282Z"/><path d="M426.6,281.28l-1.86,2.1-12.15-10.74,1.86-2.1Z"/><path d="M437.41,269.05l-1.87,2.11L422.14,269l8.61,7.62-1.86,2.11L416.74,268l1.87-2.11,13.45,2.21-8.65-7.65,1.85-2.09Z"/><path class="cls-4" d="M344,225l-3.33-3.8-10.48,9.2-1.84-2.1,10.47-9.2-3.3-3.76,1.7-1.5,8.49,9.66Z"/><path class="cls-4" d="M346.6,238.15l-4.4-5-3.74,3.29,5.13,5.85-1.69,1.48-7-8,12.18-10.69L354,233l-1.71,1.49-5.08-5.79-3.36,3,4.39,5Z"/><path class="cls-4" d="M352.14,249.11a2,2,0,0,0,.74-1.66,8.89,8.89,0,0,0-.91-2.8,13.77,13.77,0,0,1-1.07-3.21,4.17,4.17,0,0,1,1.27-4.06,3.9,3.9,0,0,1,3.48-.93,6.43,6.43,0,0,1,3.69,2.28,7,7,0,0,1,1.52,2.68,4.88,4.88,0,0,1,0,2.73,4.55,4.55,0,0,1-1.42,2.26l-1.85-2.11a2.54,2.54,0,0,0,1-1.91,3.3,3.3,0,0,0-1-2.19,3.44,3.44,0,0,0-1.86-1.22,2,2,0,0,0-1.74.52,1.77,1.77,0,0,0-.58,1.59,9.39,9.39,0,0,0,.93,2.81,12.8,12.8,0,0,1,1,3.13,4.9,4.9,0,0,1-.13,2.35,4.31,4.31,0,0,1-1.28,1.84,3.88,3.88,0,0,1-3.45,1,6.76,6.76,0,0,1-3.68-2.38,8.14,8.14,0,0,1-1.65-2.86,5.51,5.51,0,0,1-.16-2.91,4.56,4.56,0,0,1,1.47-2.38l1.86,2.12a2.59,2.59,0,0,0-1,2.09,4,4,0,0,0,1.15,2.47,3.47,3.47,0,0,0,1.91,1.27A1.92,1.92,0,0,0,352.14,249.11Z"/><path class="cls-4" d="M370.69,255.44l-3.33-3.8-10.48,9.2-1.84-2.1,10.48-9.2-3.31-3.76,1.71-1.5,8.48,9.66Z"/><path class="cls-4" d="M367.76,266.59a3.77,3.77,0,0,1,2-.9A9.72,9.72,0,0,1,373,266a10.22,10.22,0,0,1,.65-2.33,3.84,3.84,0,0,1,1-1.35,4,4,0,0,1,3-1.12,4.36,4.36,0,0,1,2.88,1.62,4.06,4.06,0,0,1,1.13,2.86,3.33,3.33,0,0,1-1.19,2.55,3.48,3.48,0,0,1-1.74.85,6.07,6.07,0,0,1-2.38-.14l-1.33-.3-.71,4.79A6.53,6.53,0,0,0,377,272l1.55,1.76a8.09,8.09,0,0,1-4.62,2.19l-.54,3.64-2.07-2.36.21-1.39a6.72,6.72,0,0,1-3.72-2.26,5.65,5.65,0,0,1-1.58-3.73A4.26,4.26,0,0,1,367.76,266.59Zm1.71,5.65a4.17,4.17,0,0,0,2.37,1.32l.81-5.42-.42-.09a2.88,2.88,0,0,0-2.62.52,2.42,2.42,0,0,0-.89,1.75A2.62,2.62,0,0,0,369.47,272.24Zm6.86-8a4.15,4.15,0,0,0-1,2.41l1.45.37.44.07a2,2,0,0,0,1.64-.51,1.49,1.49,0,0,0,.5-1.08,1.7,1.7,0,0,0-.47-1.21,1.58,1.58,0,0,0-1.23-.59A2,2,0,0,0,376.33,264.23Z"/><path class="cls-4" d="M437.26,331.26l-3.34-3.79-10.47,9.19-1.85-2.1,10.48-9.2-3.31-3.76,1.71-1.5,8.48,9.67Z"/><path class="cls-4" d="M436.8,342.42l-2.07-2.36L430,344.17l-1.86-2.11,12.19-10.7,3.76,4.29a6.62,6.62,0,0,1,1.91,4.08,4.46,4.46,0,0,1-1.73,3.55,4.55,4.55,0,0,1-2.57,1.21A5,5,0,0,1,439,344l-2.67,7.19-.11.09-2-2.26Zm-.37-3.86,1.91,2.18a3.27,3.27,0,0,0,2,1.2,2.53,2.53,0,0,0,2-.7,2.65,2.65,0,0,0,1-1.88,3.13,3.13,0,0,0-.9-2.15l-2-2.23Z"/><path class="cls-4" d="M446.39,357.08l-4.14-4.72-3.7,1.5-1.93-2.2,16.22-6.09,1.67,1.9-8.14,15.3-1.94-2.2Zm-1.91-5.62,3.1,3.53,3.5-6.2Z"/><path class="cls-4" d="M449.54,366.39l-1.85-2.11,12.19-10.69,1.85,2.1Z"/><path class="cls-4" d="M460.31,378.66l-1.86-2.12,3.88-13-8.64,7.59L451.83,369,464,358.3l1.86,2.11L462,373.48l8.68-7.62,1.84,2.1Z"/><path class="cls-4" d="M152.53,337l-15.66,4.16-1.23-4.63a7.5,7.5,0,0,1-.06-3.93,6.54,6.54,0,0,1,2-3.19,8.55,8.55,0,0,1,3.66-1.92l.78-.2a8.55,8.55,0,0,1,4.15-.16,6.51,6.51,0,0,1,3.28,1.84,7.77,7.77,0,0,1,1.91,3.52Zm-14.19.85,11.3-3-.48-1.77A4.24,4.24,0,0,0,147,330.1a6.09,6.09,0,0,0-4.16-.14l-.87.23a6.22,6.22,0,0,0-3.6,2.14,4.09,4.09,0,0,0-.49,3.58Z"/><path class="cls-4" d="M140.54,314.91l1,6.59,4.93-.74-1.14-7.69,2.22-.34,1.56,10.49-16,2.38-1.55-10.41,2.25-.33,1.13,7.62,4.43-.66-1-6.58Z"/><path class="cls-4" d="M141.29,308.56l6-.23.11,2.82-16.2.6-.23-6.2a6.26,6.26,0,0,1,1.25-4.36,4.8,4.8,0,0,1,3.69-1.74,4.58,4.58,0,0,1,3.76,1.43,6.53,6.53,0,0,1,1.49,4.33Zm-2.27.08-.13-3.38a3.37,3.37,0,0,0-.79-2.27,2.6,2.6,0,0,0-2.07-.71,2.76,2.76,0,0,0-2.07.88,3.1,3.1,0,0,0-.72,2.23l.12,3.46Z"/><path class="cls-4" d="M145,294.33l.51-7.34,2.25.16-.71,10.15-16.17-1.13.19-2.81Z"/><path class="cls-4" d="M142.56,272.29a9.92,9.92,0,0,1,4,1.55,6.16,6.16,0,0,1,2.31,2.8,6.54,6.54,0,0,1,.33,3.64,6.62,6.62,0,0,1-1.57,3.29,6.27,6.27,0,0,1-3.12,1.86,9.79,9.79,0,0,1-4.2.12l-.89-.16a9.87,9.87,0,0,1-4-1.57A6.26,6.26,0,0,1,133.1,281a6.34,6.34,0,0,1-.33-3.63,6.51,6.51,0,0,1,1.55-3.29,6.25,6.25,0,0,1,3.11-1.85,10,10,0,0,1,4.25-.1Zm-1.33,2.63a7,7,0,0,0-4.24.27,3.61,3.61,0,0,0-1,5.66,7,7,0,0,0,3.8,1.74l.92.17a7.07,7.07,0,0,0,4.25-.3,3.6,3.6,0,0,0,1.05-5.67,7.27,7.27,0,0,0-3.92-1.73Z"/><path class="cls-4" d="M143.94,264.58l-6.27-5.79.9-3L146.8,264l5.71,1.72-.81,2.71L146,266.68l-11.38,2.25.91-3Z"/><path class="cls-4" d="M643.86,254.52l15.31-5.34,1.58,4.52a7.52,7.52,0,0,1,.35,3.92,6.53,6.53,0,0,1-1.72,3.33,8.65,8.65,0,0,1-3.5,2.19l-.77.26a8.6,8.6,0,0,1-4.13.47,6.52,6.52,0,0,1-3.41-1.58,7.94,7.94,0,0,1-2.17-3.37ZM658,252.59l-11,3.85.61,1.73a4.21,4.21,0,0,0,2.43,2.76,6.06,6.06,0,0,0,4.15-.17l.85-.3a6.14,6.14,0,0,0,3.43-2.41,4,4,0,0,0,.22-3.6Z"/><path class="cls-4" d="M657.5,275.62l-1.48-6.5-4.86,1.11,1.72,7.59-2.19.5L648.34,268l15.81-3.59,2.33,10.26-2.22.5-1.7-7.51-4.37,1,1.48,6.49Z"/><path class="cls-4" d="M656.07,287.8a2,2,0,0,0,1.54-.95,8.85,8.85,0,0,0,.85-2.83,12.63,12.63,0,0,1,.94-3.24,4.13,4.13,0,0,1,3.34-2.63,3.91,3.91,0,0,1,3.39,1.21,6.42,6.42,0,0,1,1.75,4,7,7,0,0,1-.26,3.07,5,5,0,0,1-1.52,2.27,4.59,4.59,0,0,1-2.45,1.05l-.33-2.78a2.52,2.52,0,0,0,1.88-1,3.31,3.31,0,0,0,.45-2.34,3.44,3.44,0,0,0-.84-2.06,2,2,0,0,0-1.73-.57,1.77,1.77,0,0,0-1.38,1,9.59,9.59,0,0,0-.83,2.83,12.61,12.61,0,0,1-.91,3.17,4.89,4.89,0,0,1-1.44,1.86,4.33,4.33,0,0,1-2.1.79,3.86,3.86,0,0,1-3.38-1.16,6.75,6.75,0,0,1-1.69-4.05,7.83,7.83,0,0,1,.27-3.29,5.39,5.39,0,0,1,1.52-2.49,4.45,4.45,0,0,1,2.55-1.12l.33,2.79a2.64,2.64,0,0,0-2,1.16,4,4,0,0,0-.45,2.69,3.44,3.44,0,0,0,.86,2.12A1.92,1.92,0,0,0,656.07,287.8Z"/><path class="cls-4" d="M652.33,296l-.1-2.8,16.2-.6.1,2.8Z"/><path class="cls-4" d="M654,311.43a5.45,5.45,0,0,1-1.61-2.53,9.92,9.92,0,0,1-.4-3.57,6.87,6.87,0,0,1,1.11-3.55,6.09,6.09,0,0,1,2.76-2.28,9.16,9.16,0,0,1,4-.68l1.27.07a8.54,8.54,0,0,1,5.64,2.05,6.07,6.07,0,0,1,1.81,5,6.41,6.41,0,0,1-1.56,4.22,5.8,5.8,0,0,1-3.95,1.72l.14-2.76a3.1,3.1,0,0,0,3.1-3.24,3.34,3.34,0,0,0-1.21-2.95,6.94,6.94,0,0,0-3.94-1.22l-1.25-.06a6.59,6.59,0,0,0-4.13.89,3.65,3.65,0,0,0-1.6,3,4,4,0,0,0,.82,3.12l3.17.16.17-3.33,2.13.11-.31,6.14Z"/><path class="cls-4" d="M649.32,326.25l.5-2.77,12.61-5.05-11.31-2.06.5-2.77,16,2.91-.5,2.77-12.66,5.06,11.36,2.07-.51,2.75Z"/><path class="cls-5" d="M223.41,274.46,234.56,306l11.1-31.5h11.75v43.43h-9V306l.9-20.49-11.72,32.36h-6.15l-11.69-32.33.9,20.46v11.87h-8.95V274.46Z"/><path class="cls-5" d="M274.17,310.7h19v7.19H265.22V274.46h8.95Z"/><path class="cls-5" d="M535.37,294.51a26.19,26.19,0,0,1-2.27,11.24,17,17,0,0,1-6.49,7.46,19.19,19.19,0,0,1-19.31,0,17.25,17.25,0,0,1-6.56-7.41,25.32,25.32,0,0,1-2.35-11.08V292.6a26.14,26.14,0,0,1,2.31-11.29,17.15,17.15,0,0,1,6.53-7.48,19.13,19.13,0,0,1,19.29,0,17.15,17.15,0,0,1,6.53,7.48,26.07,26.07,0,0,1,2.32,11.26Zm-9.07-2q0-6.82-2.45-10.37a8.63,8.63,0,0,0-13.92-.05q-2.44,3.51-2.48,10.27v2.12c0,4.44.82,7.87,2.45,10.32a8.55,8.55,0,0,0,14,.13q2.42-3.52,2.45-10.3Z"/><path class="cls-5" d="M570.35,299.4q0,7.46-3.39,12a10.84,10.84,0,0,1-9.14,4.48,10.06,10.06,0,0,1-7.9-3.39v15.2H541.3V283h8l.3,3.16a10.15,10.15,0,0,1,8.17-3.76,11,11,0,0,1,9.28,4.42q3.3,4.41,3.31,12.17Zm-8.62-.62a12.63,12.63,0,0,0-1.6-6.95,5.19,5.19,0,0,0-4.63-2.45c-2.71,0-4.57,1-5.58,3.1V305.7c1.05,2.12,2.93,3.19,5.64,3.19Q561.72,308.89,561.73,298.78Z"/><path class="cls-5" d="M593.16,306.32a2.79,2.79,0,0,0-1.56-2.49,17.86,17.86,0,0,0-5-1.62q-11.51-2.43-11.51-9.79a8.88,8.88,0,0,1,3.56-7.17,14.39,14.39,0,0,1,9.32-2.88q6.15,0,9.83,2.9a9.12,9.12,0,0,1,3.68,7.51h-8.62a4.17,4.17,0,0,0-1.19-3.06,5.07,5.07,0,0,0-3.73-1.2,5.2,5.2,0,0,0-3.37,1,3.13,3.13,0,0,0-1.19,2.51,2.65,2.65,0,0,0,1.36,2.31,14.15,14.15,0,0,0,4.57,1.52,38.6,38.6,0,0,1,5.43,1.44q6.82,2.52,6.83,8.68a8.41,8.41,0,0,1-3.79,7.15,16.38,16.38,0,0,1-9.78,2.72,17.14,17.14,0,0,1-7.2-1.44,12.18,12.18,0,0,1-4.94-4,9.21,9.21,0,0,1-1.78-5.44h8.17a4.49,4.49,0,0,0,1.7,3.52,6.75,6.75,0,0,0,4.23,1.22,6.2,6.2,0,0,0,3.74-.94A2.92,2.92,0,0,0,593.16,306.32Z"/></svg>